<?xml version="1.0" encoding="utf-8"?>
<!-- Generator: Adobe Illustrator 16.0.3, SVG Export Plug-In . SVG Version: 6.00 Build 0)  -->
<!DOCTYPE svg PUBLIC "-//W3C//DTD SVG 1.1//EN" "http://www.w3.org/Graphics/SVG/1.1/DTD/svg11.dtd">
<svg version="1.1" id="Capa_1" xmlns="http://www.w3.org/2000/svg" xmlns:xlink="http://www.w3.org/1999/xlink" x="0px" y="0px"
	 width="178.956px" height="178.956px" viewBox="0 0 178.956 178.956" enable-background="new 0 0 178.956 178.956"
	 xml:space="preserve">
<g>
	<path fill="#FFFFFF" d="M11.267,125.905l13.365-16.01c9.254,7.638,18.947,12.484,30.699,12.484c9.252,0,14.834-3.672,14.834-9.694
		v-0.294c0-5.728-3.525-8.666-20.711-13.072c-20.709-5.287-34.076-11.016-34.076-31.433v-0.293
		c0-18.654,14.982-30.992,35.986-30.992c14.982,0,27.76,4.7,38.189,13.072l-11.75,17.038c-9.107-6.315-18.066-10.135-26.732-10.135
		s-13.221,3.966-13.221,8.96v0.294c0,6.756,4.406,8.959,22.18,13.513c20.857,5.435,32.607,12.926,32.607,30.845v0.294
		c0,20.417-15.568,31.873-37.748,31.873C39.319,142.355,23.604,136.92,11.267,125.905z"/>
	<path fill="#FFFFFF" d="M104.532,38.07h22.619v102.816h-22.619V38.07z"/>
	<path fill="#FFFFFF" d="M145.069,38.07h22.621v102.816h-22.621V38.07z"/>
</g>
</svg>
